<?xml version="1.0" encoding="utf-8"?>
<!-- Generator: Adobe Illustrator 16.0.4, SVG Export Plug-In . SVG Version: 6.00 Build 0)  -->
<!DOCTYPE svg PUBLIC "-//W3C//DTD SVG 1.1//EN" "http://www.w3.org/Graphics/SVG/1.1/DTD/svg11.dtd">
<svg version="1.1" xmlns="http://www.w3.org/2000/svg" xmlns:xlink="http://www.w3.org/1999/xlink" x="0px" y="0px" width="80px"
	 height="90px" viewBox="0 0 80 90" enable-background="new 0 0 80 90" xml:space="preserve">
<g id="Layer_2" display="none">
	<rect x="-2" y="-1" display="inline" fill="#E59617" width="87" height="95"/>
</g>
<g id="Layer_1">
	<g>
		<polygon fill="#FFFFFF" points="40,90 80,50 70,40 55,25 40,25 55,40 40,40 30,50 65,50 40,75 		"/>
		<polygon fill="#FFFFFF" points="50,50 15,50 40,25 25,25 0,50 10,60 40,90 40,75 25,60 40,60 		"/>
		<polygon fill="#FFFFFF" points="50,0 45,5 40,0 35,5 30,0 25,5 30,10 35,15 40,10 45,15 50,10 55,5 		"/>
		
			<rect x="32.929" y="42.929" transform="matrix(0.7071 0.7071 -0.7071 0.7071 47.0711 -13.6396)" fill="#FFFFFF" width="14.142" height="14.142"/>
	</g>
	<polygon fill="#FFFFFF" points="40,50 40,40 55,40 65,50 	"/>
	<polygon fill="#FFFFFF" points="40,50 40,60 25,60 15,50 	"/>
</g>
</svg>
